:SAMPLES-PER-SECOND 30
:FULLY-SPECIFIED
:DEGREES
1089
root  55.4477 37.2924 -33.9452 3.96898 43.0657 7.33313
RightUpLeg  -23.3732 -6.83725 -1.85035
RightLeg  3.01482 -13.9927 2.86269
RightFoot  -6.38462 -0.370465 7.30033
RightToes  -8.14909e-010 0 -3.6325e-017
Spine  7.74092 -1.76553 -6.34456
Spine1  5.32647 -2.82267 2.9497
HEad  9.57513 24.208 26.3793
LeftShoulder1  0.177517 2.99396 -28.6684
LeftArm  7.73097 -24.091 -47.9324
LeftForeArm  25.5123 -27.6714 -4.58569
LeftHand  -0.0387587 4.96912 4.67002
RightShoulder  -0.964496 -6.16672 29.6402
RightArm  17.9183 -10.3011 38.7737
RightForeArm  10.2189 16.899 5.04376
RightHand  -0.131284 4.12897 -1.87841
LeftUpLeg  13.8539 6.36633 -8.1009
LeftLeg  12.5612 8.37771 0.771195
LeftFoot  -21.2749 0.34997 2.56114
LeftToes  1.648e-009 -9.21574e-011 2.55256e-011
1090
root  56.5882 37.0138 -33.0575 3.21596 42.6243 7.23444
RightUpLeg  -24.213 -7.43645 -0.372804
RightLeg  6.74604 -9.81583 1.64931
RightFoot  -5.26577 -0.235828 4.8527
RightToes  -8.14909e-010 0 -3.6325e-017
Spine  7.42456 -2.13426 -5.32472
Spine1  6.01971 -3.32334 3.24449
HEad  9.89542 24.755 25.7596
LeftShoulder1  0.155041 3.05806 -28.6342
LeftArm  7.92532 -26.7312 -48.3385
LeftForeArm  26.2279 -29.0801 -4.86407
LeftHand  -0.0136172 5.65126 5.24475
RightShoulder  -0.839046 -5.86728 28.9041
RightArm  15.7972 -11.0462 38.7727
RightForeArm  11.6461 15.8822 5.00298
RightHand  -0.106857 4.1547 -1.57216
LeftUpLeg  16.8452 6.70307 -8.23585
LeftLeg  12.8796 8.19144 1.07122
LeftFoot  -21.744 0.212424 0.885552
LeftToes  1.648e-009 -9.21574e-011 2.55256e-011
1091
root  57.7229 36.8376 -32.1452 2.23834 42.4197 5.80292
RightUpLeg  -26.509 -9.12904 2.63753
RightLeg  13.1465 -5.37453 0.0348659
RightFoot  0.337113 0.311358 -3.26661
RightToes  -8.14909e-010 0 -3.6325e-017
Spine  7.40168 -2.51111 -3.061
Spine1  5.9333 -3.87648 3.9069
HEad  10.2929 24.7457 25.6451
LeftShoulder1  0.194353 2.9389 -28.2843
LeftArm  8.51342 -28.8612 -48.7669
LeftForeArm  25.7354 -30.2491 -5.16198
LeftHand  -0.0266102 5.31719 5.91012
RightShoulder  -0.865726 -5.93761 28.9739
RightArm  15.3239 -11.6176 37.61
RightForeArm  11.5421 15.5735 4.97002
RightHand  -0.0645882 3.15091 -1.12059
LeftUpLeg  18.7435 8.38396 -6.49233
LeftLeg  14.1511 5.89171 1.09363
LeftFoot  -21.6915 -0.0161088 -1.58456
LeftToes  1.648e-009 -9.21574e-011 2.55256e-011
1092
root  58.8513 36.5878 -31.1747 0.918579 41.5245 3.6554
RightUpLeg  -28.6568 -8.96287 5.09967
RightLeg  20.0207 -3.45316 -1.72405
RightFoot  3.376 0.712888 -5.39431
RightToes  -8.14909e-010 0 -3.6325e-017
Spine  7.71839 -2.85732 0.0761919
Spine1  4.97491 -3.9468 3.65519
HEad  10.9982 25.7396 26.1836
LeftShoulder1  0.268824 2.70757 -27.5949
LeftArm  7.67399 -30.1915 -49.6151
LeftForeArm  26.3286 -31.4019 -5.40251
LeftHand  -0.0421547 4.99142 6.2602
RightShoulder  -0.867531 -5.91449 29.3867
RightArm  13.9172 -12.1867 36.5979
RightForeArm  11.3728 15.5395 4.71949
RightHand  -0.0522266 3.68448 -0.90863
LeftUpLeg  19.157 12.6138 -2.74124
LeftLeg  18.7323 0.678198 0.407547
LeftFoot  -21.6199 -0.277953 -4.52262
LeftToes  1.648e-009 -9.21574e-011 2.55256e-011
1093
root  59.9804 36.3479 -30.2715 -0.0625305 40.0392 2.06671
RightUpLeg  -30.0923 -6.62408 5.60516
RightLeg  26.7914 -3.38301 -2.08675
RightFoot  2.26117 0.980763 -8.08753
RightToes  -8.14909e-010 0 -3.6325e-017
Spine  8.44795 -3.12915 2.90989
Spine1  4.07259 -3.87741 3.60882
HEad  11.3504 25.3674 25.8528
LeftShoulder1  0.339015 2.49529 -27.4344
LeftArm  6.5957 -31.3225 -50.3197
LeftForeArm  28.085 -32.3687 -5.53736
LeftHand  -0.0516408 4.79858 5.95592
RightShoulder  -0.769404 -5.65366 29.148
RightArm  12.3527 -12.1163 36.3982
RightForeArm  10.5696 14.7805 4.63854
RightHand  -0.130761 3.90538 -1.8957
LeftUpLeg  17.9089 15.2057 -0.224977
LeftLeg  25.9717 -1.63 -0.541765
LeftFoot  -19.1075 -0.438602 -8.3399
LeftToes  1.648e-009 -9.21574e-011 2.55256e-011
1094
root  60.9799 36.195 -29.3401 -1.18321 39.0928 0.316406
RightUpLeg  -30.1111 -5.71488 6.71638
RightLeg  31.1359 -3.42892 -2.48418
RightFoot  -0.274071 0.860734 -8.85788
RightToes  -8.14909e-010 0 -3.6325e-017
Spine  8.96653 -3.42336 4.21996
Spine1  4.00035 -4.32214 5.43103
HEad  11.8595 25.1656 25.5218
LeftShoulder1  0.384308 2.34353 -27.0345
LeftArm  7.06192 -33.0486 -51.0795
LeftForeArm  28.0033 -32.5868 -5.59582
LeftHand  -0.0870008 3.98729 6.13773
RightShoulder  -0.692472 -5.45179 28.8903
RightArm  11.8115 -11.2645 36.5976
RightForeArm  10.8547 14.2503 4.64396
RightHand  -0.0796556 3.5063 -1.2935
LeftUpLeg  14.3385 16.9907 2.73723
LeftLeg  36.3058 -2.73944 -1.72001
LeftFoot  -11.9494 0.0193045 -11.922
LeftToes  1.648e-009 -9.21574e-011 2.55256e-011
1095
root  61.8119 36.0698 -28.4721 -1.51962 38.0611 -1.3374
RightUpLeg  -30.2948 -3.80051 7.81677
RightLeg  34.1518 -4.18544 -3.31267
RightFoot  -3.02779 0.61045 -8.63832
RightToes  -8.14909e-010 0 -3.6325e-017
Spine  9.89654 -3.41807 4.76681
Spine1  2.48622 -4.54562 7.75046
HEad  13.3526 25.9478 27.0458
LeftShoulder1  0.464266 2.07592 -26.4727
LeftArm  7.71627 -35.2354 -51.8049
LeftForeArm  27.9756 -32.2584 -5.517
LeftHand  -0.118825 3.02583 5.39105
RightShoulder  -0.55299 -5.09112 27.8468
RightArm  11.6604 -11.0292 37.7491
RightForeArm  10.0161 14.9026 4.59144
RightHand  -0.119789 3.36222 -1.83535
LeftUpLeg  7.23728 17.0372 4.0301
LeftLeg  48.3712 -0.817591 -0.46454
LeftFoot  0.957541 1.25427 -12.2409
LeftToes  1.648e-009 -9.21574e-011 2.55256e-011
1096
root  62.6192 35.9186 -27.8042 -2.46941 37.2222 -2.15778
RightUpLeg  -29.5774 -2.70896 8.04784
RightLeg  37.3239 -4.45577 -3.90912
RightFoot  -5.69539 0.371319 -8.30982
RightToes  -8.14909e-010 0 -3.6325e-017
Spine  11.2278 -3.95126 5.06907
Spine1  2.6933 -5.24982 9.95992
HEad  14.4841 28.0254 28.3955
LeftShoulder1  0.322445 2.5529 -27.8249
LeftArm  9.28297 -38.6512 -51.4712
LeftForeArm  27.135 -32.4448 -5.61024
LeftHand  -0.0961061 4.07669 7.21178
RightShoulder  -0.29545 -4.39462 26.0656
RightArm  10.8008 -10.3537 40.0087
RightForeArm  10.4664 16.6113 4.2036
RightHand  -0.114902 3.82795 -1.69726
LeftUpLeg  0.837754 16.2514 4.14036
LeftLeg  58.5197 0.467706 1.23812
LeftFoot  12.6463 1.93264 -9.29895
LeftToes  1.648e-009 -9.21574e-011 2.55256e-011
1097
root  63.3839 35.9713 -27.0605 -3.82722 35.6224 -2.62726
RightUpLeg  -27.029 -2.24791 8.31211
RightLeg  38.4735 -3.85967 -3.57167
RightFoot  -7.70344 0.216788 -8.44293
RightToes  -8.14909e-010 0 -3.6325e-017
Spine  13.2926 -3.75945 5.43947
Spine1  2.16485 -4.84022 10.2799
HEad  15.1565 27.2263 29.8538
LeftShoulder1  0.634891 1.5405 -26.1777
LeftArm  8.83947 -40.8034 -52.5426
LeftForeArm  28.6621 -32.226 -5.47033
LeftHand  -0.134015 3.1058 6.29087
RightShoulder  -0.424331 -4.76589 26.7112
RightArm  12.9957 -9.25289 40.5659
RightForeArm  8.16169 19.3566 4.34314
RightHand  -0.183477 3.95159 -2.55197
LeftUpLeg  -3.98753 15.3169 4.35387
LeftLeg  65.9139 -0.758893 -1.22285
LeftFoot  9.33419 1.34524 -7.67913
LeftToes  1.648e-009 -9.21574e-011 2.55256e-011
1098
root  64.2247 36.1325 -26.3332 -3.67751 32.7915 -2.58063
RightUpLeg  -25.2382 -0.886061 8.17214
RightLeg  38.6917 -2.90205 -2.78029
RightFoot  -9.21656 0.0944728 -8.39038
RightToes  -8.14909e-010 0 -3.6325e-017
Spine  13.2818 -3.41737 6.55187
Spine1  2.59799 -4.18519 9.01798
HEad  15.3803 26.8682 29.2584
LeftShoulder1  0.809744 0.907123 -24.9277
LeftArm  9.34341 -42.8161 -52.4792
LeftForeArm  27.6485 -32.4981 -5.59402
LeftHand  -0.0907312 4.26845 7.58929
RightShoulder  -0.49567 -4.98999 26.5213
RightArm  13.3729 -8.22062 42.2653
RightForeArm  9.33562 23.1217 4.47924
RightHand  -0.149152 3.31749 -2.24687
LeftUpLeg  -9.60667 15.1148 4.04437
LeftLeg  69.981 -1.77588 -4.51131
LeftFoot  5.53124 1.0274 -7.16327
LeftToes  1.648e-009 -9.21574e-011 2.55256e-011
1099
root  65.0995 36.3238 -25.6483 -3.21236 28.8835 -2.28436
RightUpLeg  -23.476 1.49105 7.72233
RightLeg  38.478 -1.76264 -1.79511
RightFoot  -10.3811 -0.00240604 -8.09377
RightToes  -8.14909e-010 0 -3.6325e-017
Spine  13.5188 -3.07178 6.62885
Spine1  2.34199 -3.76517 8.67016
HEad  16.6548 28.201 27.9137
LeftShoulder1  0.798302 0.89845 -24.3713
LeftArm  7.91476 -43.8599 -51.1586
LeftForeArm  28.0877 -32.7413 -5.62886
LeftHand  -0.118113 3.76229 7.39688
RightShoulder  -0.453026 -4.84115 27.0153
RightArm  15.2811 -6.48929 42.6236
RightForeArm  10.3708 27.1186 5.28051
RightHand  -0.101731 4.16108 -1.50472
LeftUpLeg  -14.7834 14.7416 3.35238
LeftLeg  71.002 -1.5645 -4.20069
LeftFoot  2.92229 0.832516 -6.77758
LeftToes  1.648e-009 -9.21574e-011 2.55256e-011
1100
root  65.9762 36.5843 -24.926 -3.0544 25.3664 -2.10016
RightUpLeg  -21.146 3.39004 7.21255
RightLeg  37.5831 -0.529227 -0.724278
RightFoot  -11.1807 -0.0638712 -8.17159
RightToes  -8.14909e-010 0 -3.6325e-017
Spine  13.0085 -3.20714 7.2106
Spine1  3.16793 -3.76161 7.44126
HEad  17.4992 29.3935 26.6788
LeftShoulder1  0.69016 1.18632 -23.5966
LeftArm  6.4334 -44.8671 -49.8383
LeftForeArm  28.9356 -33.0147 -5.64844
LeftHand  -0.11404 3.77805 7.1632
RightShoulder  -0.336079 -4.49811 26.3645
RightArm  16.2583 -5.33796 44.6482
RightForeArm  11.6093 31.1312 6.17816
RightHand  -0.108115 4.13536 -1.59769
LeftUpLeg  -18.7781 13.5937 3.48502
LeftLeg  69.21 -1.05666 -2.33634
LeftFoot  -0.206209 0.578323 -5.91884
LeftToes  1.648e-009 -9.21574e-011 2.55256e-011
1101
root  66.8077 36.8336 -24.2101 -2.62796 21.787 -1.32556
RightUpLeg  -19.1018 5.32814 6.08343
RightLeg  36.856 0.694659 0.280255
RightFoot  -11.9665 -0.124442 -8.04192
RightToes  -8.14909e-010 0 -3.6325e-017
Spine  12.8802 -2.9006 5.26526
Spine1  3.30976 -4.06958 8.98487
HEad  18.4774 30.9577 24.8522
LeftShoulder1  0.553228 1.71163 -24.658
LeftArm  5.66985 -45.8969 -46.9879
LeftForeArm  28.4919 -33.4435 -5.7801
LeftHand  -0.108117 3.86719 7.08457
RightShoulder  -0.145721 -3.95005 24.5608
RightArm  16.2732 -5.07034 46.7199
RightForeArm  13.571 35.3788 7.17261
RightHand  -0.0788166 4.49269 -1.21455
LeftUpLeg  -21.7579 12.0668 3.62101
LeftLeg  64.9872 -0.112233 0.389212
LeftFoot  -2.659 0.409089 -5.18505
LeftToes  1.648e-009 -9.21574e-011 2.55256e-011
1102
root  67.6006 37.0364 -23.4988 -2.04112 18.3874 -0.435791
RightUpLeg  -17.5318 7.65433 4.7255
RightLeg  36.3453 1.62778 1.00695
RightFoot  -12.8874 -0.190741 -7.69028
RightToes  -8.14909e-010 0 -3.6325e-017
Spine  11.701 -3.20334 5.82724
Spine1  4.4862 -3.86222 5.76662
HEad  18.8219 31.1028 25.3447
LeftShoulder1  0.582563 1.45972 -22.1019
LeftArm  3.90019 -46.3485 -45.675
LeftForeArm  28.9677 -33.4838 -5.76311
LeftHand  -0.102701 3.89062 6.74441
RightShoulder  -0.279667 -4.35637 25.5622
RightArm  16.9845 -4.36108 48.0401
RightForeArm  14.6468 39.2054 8.22221
RightHand  -0.187241 4.24677 -2.53318
LeftUpLeg  -23.8186 10.3659 4.27352
LeftLeg  58.6567 0.358614 1.22271
LeftFoot  -3.8618 0.313238 -4.44504
LeftToes  1.648e-009 -9.21574e-011 2.55256e-011
1103
root  68.4557 37.2333 -22.8357 -1.28598 14.4197 0.0155029
RightUpLeg  -16.2475 10.2164 3.44515
RightLeg  35.3108 3.05926 2.05308
RightFoot  -13.6657 -0.243063 -7.40925
RightToes  -8.14909e-010 0 -3.6325e-017
Spine  11.0928 -2.82878 4.94237
Spine1  4.50208 -3.75175 5.99112
HEad  19.2212 33.918 23.6533
LeftShoulder1  0.505376 1.74442 -22.3875
LeftArm  2.56355 -46.9705 -43.4052
LeftForeArm  29.2897 -33.4089 -5.72605
LeftHand  -0.121069 3.57365 6.87459
RightShoulder  -0.190915 -4.09845 24.3893
RightArm  16.4822 -4.86031 48.9583
RightForeArm  16.5426 42.8306 9.27483
RightHand  -0.193392 4.7286 -2.511
LeftUpLeg  -24.9695 8.11034 5.7539
LeftLeg  50.3373 -0.338483 0.0219912
LeftFoot  -3.86964 0.278932 -3.90919
LeftToes  1.648e-009 -9.21574e-011 2.55256e-011
